<svg width="24" height="24" viewBox="0 0 24 24" xmlns="http://www.w3.org/2000/svg">
<g>
	<g>
		<path d="M20,24H4c-0.6,0-1-0.4-1-1V3c0-0.6,0.4-1,1-1h16c0.6,0,1,0.4,1,1v20C21,23.6,20.6,24,20,24z M5,22h14V4H5V22z"/>
	</g>
	<g>
		<path d="M8,6C7.4,6,7,5.6,7,5V1c0-0.6,0.4-1,1-1s1,0.4,1,1v4C9,5.6,8.6,6,8,6z"/>
	</g>
	<g>
		<path d="M12,6c-0.6,0-1-0.4-1-1V1c0-0.6,0.4-1,1-1s1,0.4,1,1v4C13,5.6,12.6,6,12,6z"/>
	</g>
	<g>
		<path d="M16,6c-0.6,0-1-0.4-1-1V1c0-0.6,0.4-1,1-1s1,0.4,1,1v4C17,5.6,16.6,6,16,6z"/>
	</g>
</g>
</svg>