<?xml version="1.0" encoding="UTF-8"?>
<svg width="40" height="40" version="1.1" viewBox="0 0 752 752" xmlns="http://www.w3.org/2000/svg">
 <path d="m331.6 242.79c21.473 0.19531 41.234 11.766 51.914 30.395 10.68 18.629 10.68 41.527 0 60.156-10.68 18.629-30.438 30.199-51.914 30.395-21.473-0.19531-41.23-11.762-51.91-30.395-10.684-18.629-10.684-41.527-0.003906-60.156 10.684-18.629 30.441-30.199 51.914-30.395zm177.59 118.42h-14.797v-14.801c0-5.2852-2.8242-10.172-7.4023-12.816-4.5781-2.6445-10.219-2.6445-14.797 0-4.582 2.6445-7.4023 7.5312-7.4023 12.816v14.801h-14.797c-5.2891 0-10.176 2.8203-12.816 7.3984-2.6445 4.5781-2.6445 10.219 0 14.801 2.6406 4.5781 7.5273 7.3984 12.816 7.3984h14.801v14.801h-0.003906c0 5.2852 2.8203 10.172 7.4023 12.816 4.5781 2.6406 10.219 2.6406 14.797 0 4.5781-2.6445 7.4023-7.5312 7.4023-12.816v-14.801h14.801-0.003907c5.2188-0.10156 10-2.9453 12.578-7.4805 2.582-4.5391 2.582-10.098 0-14.637-2.5781-4.5352-7.3594-7.3789-12.578-7.4805zm-118.39 29.621h-118.39c-11.773 0.011719-23.059 4.6914-31.379 13.016-8.3242 8.3242-13.008 19.609-13.02 31.379v59.199c0 3.9258 1.5586 7.6914 4.332 10.465 2.7773 2.7773 6.543 4.3359 10.469 4.3359h177.59c3.9258 0 7.6914-1.5586 10.469-4.3359 2.7734-2.7734 4.332-6.5391 4.332-10.465v-59.199c-0.011719-11.77-4.6953-23.055-13.02-31.379-8.3242-8.3242-19.609-13.004-31.379-13.016z"/>
</svg>
